# xmcd
#
# Track frame offsets:
# 150
# 13975
# 28541
# 42376
# 59545
# 74453
# 89115
# 104410
# 119945
# 133658
# 144450
#
# Disc length: 2179 seconds
#
# Revision: 0
# Processed by: cddbd v1.4PL0 Copyright (c) Steve Scherf et al.
# Submitted via: Audion 3.0.2 (http://www.panic.com/audion/)
#
DISCID=b008810b
DTITLE=James Low - Black Heart
DYEAR=1900
DGENRE=
TTITLE0=Black Heart
TTITLE1=Hurricane Sue
TTITLE2=Worn Out
TTITLE3=You're So Mean
TTITLE4=Nothing but Your Man
TTITLE5=Steel Rail
TTITLE6=How Much Do You Love Me
TTITLE7=Dealer's Choice
TTITLE8=Lullabye
TTITLE9=Back in the Saddle
TTITLE10=When I Went Wrong
EXTD=
EXTT0=
EXTT1=
EXTT2=
EXTT3=
EXTT4=
EXTT5=
EXTT6=
EXTT7=
EXTT8=
EXTT9=
EXTT10=
PLAYORDER=
